<svg xmlns="http://www.w3.org/2000/svg" viewBox="0 0 64 64">
  <!-- Pot -->
  <path d="M16 38h32l-4 20H20z" fill="#C1694F"/>
  <rect x="13" y="34" width="38" height="6" rx="2" fill="#D4845A"/>
  <!-- Stem -->
  <path d="M32 36c0-10 0-18 0-18" stroke="#4A7C59" stroke-width="3" stroke-linecap="round"/>
  <!-- Left leaf -->
  <path d="M32 24c-8-6-18-4-16 2s14 6 16-2z" fill="#6BAF5B"/>
  <!-- Right leaf -->
  <path d="M32 18c8-6 18-4 16 2s-14 6-16-2z" fill="#5A9E4B"/>
  <!-- Flower -->
  <circle cx="32" cy="10" r="3.5" fill="#F4B942"/>
  <ellipse cx="28" cy="7" rx="3.5" ry="4" transform="rotate(-30 28 7)" fill="#E86F8A"/>
  <ellipse cx="36" cy="7" rx="3.5" ry="4" transform="rotate(30 36 7)" fill="#E86F8A"/>
  <ellipse cx="29" cy="12" rx="3.5" ry="4" transform="rotate(30 29 12)" fill="#EC8BA0"/>
  <ellipse cx="35" cy="12" rx="3.5" ry="4" transform="rotate(-30 35 12)" fill="#EC8BA0"/>
  <ellipse cx="32" cy="5" rx="3.5" ry="4" fill="#E86F8A"/>
  <circle cx="32" cy="10" r="2.5" fill="#F4D03F"/>
</svg>
